<svg xmlns="http://www.w3.org/2000/svg" width="291.758" height="229.927" viewBox="0 0 291.758 229.927"><defs><style>.a{fill:#3e444e;}.b{fill:#dbdfe2;}.c{fill:#d0d1d1;}.d{fill:#dcdfe2;}.e{fill:#a7a9ac;}</style></defs><g transform="translate(-4.925 -34.39)"><path class="a" d="M285.425,34.39H16.183A11.128,11.128,0,0,0,4.925,45.382v153.9H296.682V45.382A11.127,11.127,0,0,0,285.425,34.39Z"/><path class="b" d="M4.925,199.276v16.03A11.128,11.128,0,0,0,16.183,226.3H285.425a11.129,11.129,0,0,0,11.258-10.992v-16.03Z"/><path class="c" d="M187.021,229.53c-.076-1.362-.122-2.469-.15-3.231H114.736c-.039,1.044-.112,2.736-.246,4.837l-4.9,26.769H99.429v6.412h102.75V257.9h-9.961Z"/><rect class="d" width="266.416" height="139.848" transform="translate(17.596 47.52)"/><circle class="d" cx="3.053" cy="3.053" r="3.053" transform="translate(147.751 38.665)"/><circle class="e" cx="7.363" cy="7.363" r="7.363" transform="translate(143.441 205.425)"/></g></svg>