<svg xmlns="http://www.w3.org/2000/svg" width="48" height="44" viewBox="0 0 48 44"><path d="M24,5c4.262,0,8,3.46,8,7.4,0,4.1-3.428,9.882-8,17.122C19.428,22.286,16,16.5,16,12.4,16,8.46,19.738,5,24,5Zm0-4C17.7,1,12,6.106,12,12.4S17.2,26.218,24,37c6.8-10.782,12-18.3,12-24.6S30.3,1,24,1Zm0,16a4,4,0,1,1,4-4A4,4,0,0,1,24,17ZM40,29H33.73c-.77,1.282-1.6,2.618-2.464,4h6.262l1,2H30l-.688,1.088L28.734,37H29.85l1.716,4H16.59l1.716-4h.958l-.578-.912L18,35H13.916l-2.022-2h4.84c-.87-1.382-1.7-2.718-2.464-4H8L0,45H48ZM14.412,41H6.472L10,33.944,13.032,37h3.1Zm17.616-4h7.5l2,4H33.744Z" transform="translate(0 -1)"/></svg>